<svg xmlns="http://www.w3.org/2000/svg" width="390" height="844" viewBox="0 0 390 844"><title>我的名片</title><rect width="390" height="844" fill="#F6F7F9"/><style>text{font-family:-apple-system,BlinkMacSystemFont,'PingFang SC','Helvetica Neue',Arial,sans-serif;fill:#111827} .muted{fill:#7A8493} .blue{fill:#1467E8} .white{fill:#fff} .small{font-size:12px} .body{font-size:15px} .label{font-size:13px;font-weight:600} .title{font-size:28px;font-weight:750} .h2{font-size:20px;font-weight:700} .h3{font-size:17px;font-weight:650} </style><rect x="0" y="0" width="390" height="96" fill="#F6F7F9"/><text x="24" y="38" class="small muted">20:38</text><text x="24" y="78" class="title">我的名片</text><text x="366" y="76" text-anchor="end" class="body blue">编辑</text><text x="24" y="118" class="small muted">当前身份</text><text x="358" y="118" text-anchor="end" class="small blue">工作名片⌄</text><rect x="20" y="136" width="350" height="242" rx="24" fill="#172033" stroke="#172033"/><circle cx="72" cy="194" r="30" fill="#E7EFFC"/><text x="72" y="202" text-anchor="middle" class="h2 blue">SL</text><text x="116" y="184" class="h2 white">Sky Liu</text><text x="116" y="208" class="small white">Tough Trial · Product</text><text x="44" y="252" class="body white">sky@example.com</text><text x="44" y="281" class="body white">+1 206 555 0188</text><text x="44" y="310" class="body white">微信 · skylab</text><text x="44" y="342" class="small white">toughtrial.app</text><text x="24" y="414" class="label muted">直接分享</text><rect x="20" y="432" width="350" height="68" rx="18" fill="#FFFFFF" stroke="#E8EBEF"/><circle cx="56" cy="466" r="20" fill="#EAF2FF"/><text x="56" y="472" text-anchor="middle" class="h3 blue">↗</text><text x="88" y="461" class="h3">分享信息</text><text x="88" y="481" class="small muted">微信 / 信息 / 复制</text><text x="346" y="473" text-anchor="middle" class="h2 muted">›</text><rect x="20" y="514" width="350" height="68" rx="18" fill="#FFFFFF" stroke="#E8EBEF"/><circle cx="56" cy="548" r="20" fill="#EAF2FF"/><text x="56" y="554" text-anchor="middle" class="h3 blue">▧</text><text x="88" y="543" class="h3">名片图片</text><text x="88" y="563" class="small muted">发送或保存为图片</text><text x="346" y="555" text-anchor="middle" class="h2 muted">›</text><rect x="20" y="596" width="350" height="68" rx="18" fill="#FFFFFF" stroke="#E8EBEF"/><circle cx="56" cy="630" r="20" fill="#EAF2FF"/><text x="56" y="636" text-anchor="middle" class="h3 blue">▦</text><text x="88" y="625" class="h3">二维码</text><text x="88" y="645" class="small muted">对方扫码保存联系人</text><text x="346" y="637" text-anchor="middle" class="h2 muted">›</text><text x="24" y="704" class="small blue">分享范围：工作公开  ·  修改</text><rect x="0" y="770" width="390" height="74" fill="#FFFFFF" stroke="#E7E9ED"/><text x="38" y="797" text-anchor="middle" class="h3 muted">✦</text><text x="38" y="821" text-anchor="middle" class="small muted">助手</text><text x="116" y="797" text-anchor="middle" class="h3 muted">◷</text><text x="116" y="821" text-anchor="middle" class="small muted">今天</text><text x="195" y="797" text-anchor="middle" class="h3 muted">☑</text><text x="195" y="821" text-anchor="middle" class="small muted">任务</text><text x="274" y="797" text-anchor="middle" class="h3 blue">＋</text><text x="274" y="821" text-anchor="middle" class="small blue">随手记</text><text x="352" y="797" text-anchor="middle" class="h3 muted">◌</text><text x="352" y="821" text-anchor="middle" class="small muted">回想</text></svg>